<svg width="267" height="47" viewBox="0 0 267 47" fill="none" xmlns="http://www.w3.org/2000/svg">
<g clip-path="url(#clip0_20_3)">
<path d="M66.6299 12.926C72.0709 12.926 76.1412 15.6262 78.0341 20.0828L74.0105 21.601C72.6864 17.6676 69.7024 16.4811 66.6766 16.4811C63.6507 16.4811 61.7065 17.6209 61.7065 19.6577C61.7065 21.6945 63.5061 22.5026 66.7232 23.0726L68.7094 23.4509C73.6794 24.3058 77.745 25.726 77.745 30.3227C77.745 34.9195 73.8193 37.5309 68.0939 37.5309C62.3685 37.5309 57.874 34.8307 56.1722 29.8509L60.2425 28.4775C61.2822 32.509 64.5505 33.9758 68.0007 33.9758C71.4508 33.9758 73.395 32.5043 73.395 30.561C73.395 28.4728 71.5021 27.8095 68.0939 27.2442L66.0611 26.8658C61.091 25.9175 57.4031 24.0209 57.4031 19.8025C57.4031 15.5841 61.189 12.9307 66.6299 12.9307V12.926Z" fill="white"/>
<path d="M149.909 12.926C155.35 12.926 159.42 15.6262 161.313 20.0828L157.29 21.601C155.966 17.6676 152.982 16.4811 149.956 16.4811C146.93 16.4811 144.986 17.6209 144.986 19.6577C144.986 21.6945 146.785 22.5026 150.002 23.0726L151.989 23.4509C156.959 24.3058 161.024 25.726 161.024 30.3227C161.024 34.9195 157.099 37.5309 151.373 37.5309C145.648 37.5309 141.153 34.8307 139.452 29.8509L143.522 28.4775C144.561 32.509 147.825 33.9758 151.28 33.9758C154.735 33.9758 156.674 32.5043 156.674 30.561C156.674 28.4728 154.781 27.8095 151.373 27.2442L149.34 26.8658C144.37 25.9175 140.682 24.0209 140.682 19.8025C140.682 15.5841 144.468 12.9307 149.909 12.9307V12.926Z" fill="white"/>
<path d="M87.1584 36.8582H82.7104V3.68114H87.1584V36.8582Z" fill="white"/>
<path d="M104.003 12.926C111.006 12.926 116.023 17.8078 116.023 25.2541C116.023 32.7005 111.006 37.5309 104.003 37.5309C97.0006 37.5309 92.0305 32.6491 92.0305 25.2541C92.0305 17.8592 97.0006 12.926 104.003 12.926ZM104.003 33.5834C108.498 33.5834 111.575 30.3134 111.575 25.2401C111.575 20.1669 108.498 16.8501 104.003 16.8501C99.509 16.8501 96.4784 20.2183 96.4784 25.2401C96.4784 30.262 99.5043 33.5834 104.003 33.5834Z" fill="white"/>
<path d="M117.855 13.5894H124.574V5.62449H129.022V13.5894H136.216V17.2378H129.022V31.7849C129.022 32.7332 129.497 33.2097 130.346 33.2097H135.316V36.8582H128.882C126.28 36.8582 124.574 35.1531 124.574 32.495V17.2378H117.855V13.5894Z" fill="white"/>
<path d="M238.145 13.5894V35.9566C238.145 42.3565 233.697 47.0047 226.503 47.0047C220.255 47.0047 216.754 44.113 214.483 40.4599L218.316 38.1849C219.64 40.7916 222.195 43.118 226.265 43.118C230.335 43.118 233.692 40.6981 233.692 35.6763V32.6912H233.221C231.897 34.7793 229.435 36.9096 224.894 36.9096C219.029 36.9096 214.105 32.2147 214.105 24.9131C214.105 17.6116 219.029 12.9167 224.894 12.9167C229.435 12.9167 231.897 15.0049 233.314 17.3266H233.79V13.5801H238.145V13.5894ZM233.743 24.9178C233.743 19.938 230.526 16.8127 226.125 16.8127C221.724 16.8127 218.6 19.9427 218.6 24.9178C218.6 29.893 221.724 33.0742 226.125 33.0742C230.526 33.0742 233.743 29.8976 233.743 24.9178Z" fill="white"/>
<path d="M254.98 12.926C261.983 12.926 267 17.8078 267 25.2541C267 32.7005 261.983 37.5309 254.98 37.5309C247.978 37.5309 243.007 32.6491 243.007 25.2541C243.007 17.8592 247.978 12.926 254.98 12.926ZM254.98 33.5834C259.475 33.5834 262.552 30.3134 262.552 25.2401C262.552 20.1669 259.475 16.8501 254.98 16.8501C250.486 16.8501 247.455 20.2183 247.455 25.2401C247.455 30.262 250.481 33.5834 254.98 33.5834Z" fill="white"/>
<path d="M188.775 12.926C181.781 12.926 176.82 17.8171 176.802 25.2541V36.8675H181.25V25.2541C181.259 20.2463 184.285 16.8641 188.775 16.8641C193.265 16.8641 196.337 20.1435 196.346 25.2541V36.8675H200.794V25.2541C200.785 17.8311 195.768 12.926 188.775 12.926Z" fill="white"/>
<path d="M33.5271 31.4906L29.704 29.2062L17.6191 36.4331C16.0758 37.3533 14.1549 37.3533 12.6117 36.4331L2.82539 30.5843L1.31011 31.4953C-0.433612 32.537 -0.433612 35.0596 1.31011 36.092L13.6514 43.4683C15.9686 44.8511 18.8639 44.8511 21.1858 43.4683L33.5271 36.092C35.2708 35.0503 35.2708 32.5277 33.5271 31.4953V31.4906Z" fill="#D7AD5C"/>
<path d="M33.5271 22.3952L29.704 20.1108L17.6191 27.3376C16.0759 28.2579 14.155 28.2579 12.6117 27.3376L2.82541 21.4889L1.30082 22.3999C-0.438245 23.4416 -0.438245 25.9642 1.30082 26.9966L13.6421 34.3729C15.9593 35.7557 18.8546 35.7557 21.1765 34.3729L33.5178 26.9966C35.2569 25.9549 35.2569 23.4323 33.5178 22.3999H33.5271V22.3952Z" fill="#D7AD5C"/>
<path d="M12.607 19.4381L11.4601 16.9622C11.3762 16.7707 11.2223 16.6119 11.0451 16.5091L10.5416 16.2054L7.59033 17.9806L8.87715 18.7467L10.2852 17.9012L11.3062 20.2136L12.6117 19.4381H12.6024H12.607Z" fill="#D7AD5C"/>
<path d="M33.5271 13.2671L20.5424 5.51238C18.6122 4.35385 16.2064 4.35385 14.2855 5.51238L1.31481 13.2671C-0.428913 14.3088 -0.428913 16.8314 1.31481 17.8732L14.2902 25.6279C16.2204 26.7864 18.6262 26.7864 20.5471 25.6279L33.5225 17.8732C35.2615 16.8314 35.2615 14.3088 33.5225 13.2671H33.5318H33.5271ZM16.4022 19.4008L12.663 21.6384C12.276 21.8673 11.6513 21.8673 11.2643 21.6384L4.93281 17.8451C4.54584 17.6162 4.54584 17.2379 4.93281 17.0089L8.67204 14.7713C9.05901 14.5424 9.68377 14.5424 10.0707 14.7713L16.4022 18.5646C16.7892 18.7935 16.7892 19.1719 16.4022 19.4008ZM17.1109 18.1395L10.7794 14.3462C10.3925 14.1173 10.3925 13.7389 10.7794 13.51L14.5187 11.2723C14.9056 11.0434 15.5304 11.0434 15.9174 11.2723L22.2489 15.0656C22.6358 15.2945 22.6358 15.6729 22.2489 15.9018L18.5096 18.1395C18.1227 18.3684 17.4979 18.3684 17.1109 18.1395ZM22.2209 21.8159C21.7966 22.0729 21.0926 22.0729 20.6683 21.8159C20.244 21.559 20.244 21.1432 20.6683 20.8863C21.0926 20.6294 21.7919 20.6294 22.2209 20.8863C22.6452 21.1432 22.6452 21.559 22.2209 21.8159ZM16.6167 10.8472C16.2297 10.6183 16.2297 10.2399 16.6167 10.011L20.3559 7.77339C20.7429 7.54448 21.3677 7.54448 21.7547 7.77339L28.0862 11.5666C28.4731 11.7956 28.4731 12.1739 28.0862 12.4028L24.3469 14.6405C23.96 14.8694 23.3352 14.8694 22.9482 14.6405L16.6167 10.8472ZM25.2468 19.9987C24.8225 20.2556 24.1185 20.2556 23.6942 19.9987C23.2699 19.7418 23.2699 19.326 23.6942 19.0691C24.1185 18.8121 24.8178 18.8121 25.2468 19.0691C25.671 19.326 25.671 19.7418 25.2468 19.9987ZM28.2866 18.1768C27.8624 18.4338 27.163 18.4338 26.7341 18.1768C26.3098 17.9199 26.3098 17.5041 26.7341 17.2472C27.1583 16.9903 27.8624 16.9903 28.2866 17.2472C28.7109 17.5041 28.7109 17.9199 28.2866 18.1768Z" fill="#D7AD5C"/>
<path d="M18.4443 15.9298L17.2974 13.4539C17.2135 13.2624 17.0596 13.1036 16.8824 12.9961L16.3789 12.6925L13.4276 14.4676L14.7144 15.2338L16.1225 14.3882L17.1435 16.7006L18.449 15.9252H18.4397L18.4443 15.9298Z" fill="#D7AD5C"/>
<path d="M24.2909 12.4309L23.144 9.95497C23.0601 9.76344 22.9062 9.60461 22.729 9.50184L22.2255 9.19819L19.2742 10.9734L20.561 11.7395L21.9691 10.8939L22.9901 13.2063L24.2956 12.4309H24.2863H24.2909Z" fill="#D7AD5C"/>
<path d="M28.9393 2.23765C28.9393 1.00437 27.9369 0 26.7061 0C25.4752 0 24.4728 1.00437 24.4728 2.23765C24.4728 3.22334 25.1162 4.05954 26.0067 4.35384L25.9414 10.1558H27.2842L27.3495 4.36318C28.2679 4.08757 28.93 3.2467 28.93 2.22831L28.9393 2.23765Z" fill="#D7AD5C"/>
<path d="M210.417 10.5623C210.417 10.5623 209.359 10.894 208.865 11.2817C208.818 10.8192 208.431 10.0951 207.881 9.88023C207.331 10.0905 206.944 10.8192 206.897 11.2817C206.417 10.9033 205.345 10.5623 205.345 10.5623C205.182 11.0248 204.921 12.0245 205.998 12.543C206.632 12.828 207.359 12.912 207.844 12.9214H207.918C208.394 12.912 209.121 12.8186 209.765 12.543C210.842 12.0198 210.576 11.0248 210.417 10.5623Z" fill="white"/>
<path d="M207.881 20.3397C206.585 20.3397 203.913 16.8781 203.913 15.1917C203.913 13.5053 205.503 12.3468 207.881 12.3468C210.259 12.3468 211.844 13.496 211.844 15.1917C211.844 16.8875 209.177 20.3397 207.881 20.3397ZM206.613 15.8084C206.301 15.8084 206.053 16.0653 206.053 16.369C206.053 16.6726 206.31 16.9295 206.613 16.9295C206.916 16.9295 207.172 16.6726 207.172 16.369C207.172 16.0653 206.916 15.8084 206.613 15.8084ZM205.713 14.3836C205.401 14.3836 205.154 14.6405 205.154 14.9441C205.154 15.2478 205.41 15.5047 205.713 15.5047C206.016 15.5047 206.273 15.2478 206.273 14.9441C206.273 14.6405 206.016 14.3836 205.713 14.3836ZM207.522 14.3836C207.21 14.3836 206.963 14.6405 206.963 14.9441C206.963 15.2478 207.219 15.5047 207.522 15.5047C207.825 15.5047 208.082 15.2478 208.082 14.9441C208.082 14.6405 207.825 14.3836 207.522 14.3836Z" fill="white"/>
<path d="M168.27 20.5359C167.029 20.5359 165.855 20.1202 164.899 19.3494C164.652 19.1485 164.624 18.7981 164.843 18.5739L171.752 11.7161C171.981 11.4966 172.34 11.5246 172.526 11.7815C173.235 12.7299 173.641 13.9071 173.641 15.1403C173.641 16.5838 173.081 17.9386 172.06 18.9523C171.039 19.966 169.696 20.5359 168.256 20.5359H168.265H168.27ZM167.948 17.1725C167.785 17.1725 167.636 17.2379 167.524 17.3546C167.286 17.5929 167.286 17.9713 167.524 18.2095C167.636 18.3216 167.789 18.3917 167.948 18.3917C168.106 18.3917 168.26 18.3263 168.372 18.2095C168.484 18.0927 168.554 17.9432 168.554 17.7844C168.554 17.6256 168.489 17.4714 168.372 17.3593C168.26 17.2472 168.106 17.1771 167.948 17.1771V17.1725ZM170.578 16.752C170.414 16.752 170.265 16.8174 170.153 16.9342C170.041 17.051 169.971 17.2005 169.971 17.3593C169.971 17.5181 170.037 17.6723 170.153 17.7844C170.27 17.8965 170.419 17.9666 170.578 17.9666C170.736 17.9666 170.89 17.9012 171.002 17.7844C171.114 17.6723 171.184 17.5181 171.184 17.3593C171.184 17.2005 171.118 17.0463 171.002 16.9342C170.89 16.8221 170.736 16.752 170.578 16.752ZM170.89 14.2247C170.727 14.2247 170.578 14.2901 170.466 14.4069C170.228 14.6452 170.228 15.0236 170.466 15.2618C170.578 15.3739 170.731 15.444 170.89 15.444C171.048 15.444 171.202 15.3786 171.314 15.2618C171.552 15.0236 171.552 14.6452 171.314 14.4069C171.202 14.2948 171.048 14.2247 170.89 14.2247Z" fill="white"/>
</g>
<defs>
<clipPath id="clip0_20_3">
<rect width="267" height="47" fill="white"/>
</clipPath>
</defs>
</svg>
